<mxfile host="app.diagrams.net" modified="2023-05-24T20:26:08.761Z" agent="Mozilla/5.0 (Windows NT 10.0; Win64; x64) AppleWebKit/537.36 (KHTML, like Gecko) Chrome/113.0.0.0 Safari/537.36" version="21.3.3" etag="8yUDZL0ZNYpP62Y8b7bZ" type="github">
  <diagram name="PÃ¡gina-1" id="sRp7DttywRys-TiUVlYw">
    <mxGraphModel>
      <root>
        <mxCell id="0" />
        <mxCell id="1" parent="0" />
      </root>
    </mxGraphModel>
  </diagram>
</mxfile>
